<?xml version="1.0" standalone="no"?>
<!DOCTYPE svg PUBLIC "-//W3C//DTD SVG 20010904//EN"
 "http://www.w3.org/TR/2001/REC-SVG-20010904/DTD/svg10.dtd">
<svg version="1.0" xmlns="http://www.w3.org/2000/svg"
 width="32.000000pt" height="32.000000pt" viewBox="0 0 32.000000 32.000000"
 preserveAspectRatio="xMidYMid meet">

<g transform="translate(0.000000,32.000000) scale(0.100000,-0.100000)"
fill="#000000" stroke="none">
<path d="M112 305 c-38 -17 -66 -72 -57 -114 3 -15 27 -65 54 -110 l48 -82 51
83 c28 46 53 95 57 109 9 38 -18 95 -54 113 -37 19 -56 20 -99 1z m73 -37 c46
-21 46 -85 0 -106 -32 -15 -71 -1 -80 28 -14 43 5 75 52 89 1 1 14 -4 28 -11z"/>
</g>
</svg>
